<?xml version="1.0" standalone="no"?><!DOCTYPE svg PUBLIC "-//W3C//DTD SVG 1.1//EN" "http://www.w3.org/Graphics/SVG/1.1/DTD/svg11.dtd"><svg t="1547108658164" class="icon" style="" viewBox="0 0 1024 1024" version="1.1" xmlns="http://www.w3.org/2000/svg" p-id="1400" data-spm-anchor-id="a313x.7781069.0.i0" xmlns:xlink="http://www.w3.org/1999/xlink" width="200" height="200"><defs><style type="text/css"></style></defs><path d="M512 345.026c-101.309 0-181.837 80.528-181.837 181.837 0 101.31 80.528 181.837 181.837 181.837s181.837-80.527 181.837-181.837c0-101.309-80.528-181.837-181.837-181.837z m0 324.709c-77.93 0-142.872-64.942-142.872-142.872S434.07 383.992 512 383.992c77.93 0 142.871 64.942 142.871 142.872S589.93 669.735 512 669.735z m207.814-257.17c0 22.955 18.604 41.563 41.563 41.563 22.957 0 41.563-18.608 41.563-41.563 0-22.955-18.605-41.563-41.563-41.563-22.958 0.001-41.563 18.609-41.563 41.563z m77.93-119.492h-77.93l-18.185-54.551c-5.194-12.989-20.781-23.379-33.77-23.379H356.14c-15.585 0-28.574 10.39-33.77 23.379l-18.184 54.551h-77.931c-44.16 0-77.93 33.77-77.93 77.93v363.675c0 44.159 36.367 77.93 77.93 77.93h571.488c44.16 0 77.93-33.771 77.93-77.93V371.003c0.001-44.16-33.769-77.93-77.929-77.93z m38.964 441.605c0 20.78-18.184 38.964-38.964 38.964H226.256c-20.781 0-38.965-18.184-38.965-38.964V371.003c0-20.781 18.184-38.965 38.965-38.965h106.505l7.793-25.977 18.184-51.954h306.525l18.184 51.954 7.794 25.977h106.504c20.78 0 38.964 18.184 38.964 38.965v363.675z" fill="#1296db" p-id="1401"></path></svg>