<?xml version="1.0" standalone="no"?><!DOCTYPE svg PUBLIC "-//W3C//DTD SVG 1.1//EN" "http://www.w3.org/Graphics/SVG/1.1/DTD/svg11.dtd"><svg t="1547541927565" class="icon" style="" viewBox="0 0 1024 1024" version="1.1" xmlns="http://www.w3.org/2000/svg" p-id="2505" xmlns:xlink="http://www.w3.org/1999/xlink" width="200" height="200"><defs><style type="text/css"></style></defs><path d="M304.0256 322.1504H204.8a19.2 19.2 0 0 0-19.2 19.2v460.8c0 10.5984 8.6016 19.2 19.2 19.2h614.4a19.2 19.2 0 0 0 19.2-19.2v-460.8A19.2 19.2 0 0 0 819.2 322.1504h-99.2256a37.12 37.12 0 0 1-33.2288-20.5312l-35.6352-71.2704a19.2 19.2 0 0 0-17.152-10.5984H390.0416a19.2 19.2 0 0 0-17.152 10.5984l-35.6352 71.2704a37.12 37.12 0 0 1-33.2288 20.48z m-16.5888-64l28.16-56.4224c14.1312-28.16 42.9568-45.9776 74.4448-45.9776h243.9168c31.488 0 60.3136 17.7664 74.3936 45.9776l28.2112 56.4224H819.2c45.9264 0 83.2 37.2224 83.2 83.2v460.8c0 45.9264-37.2736 83.2-83.2 83.2H204.8a83.2 83.2 0 0 1-83.2-83.2v-460.8c0-45.9776 37.2736-83.2 83.2-83.2h82.6368z" fill="#cccccc" p-id="2506"></path><path d="M512 731.7504a185.6 185.6 0 1 1 0-371.2 185.6 185.6 0 0 1 0 371.2z m0-64a121.6 121.6 0 1 0 0-243.2 121.6 121.6 0 0 0 0 243.2z" fill="#cccccc" p-id="2507"></path></svg>